PathFileType	4	(X/Y/Z)	D:\TRACE\v60_Jaco2_6-2-23\BothDRS_Motion3_9-platform.trc
DataRate	CameraRate	NumFrames	NumMarkers	Units	OrigDataRate	OrigDataStartFrame	OrigNumFrames
100.00	100.00	      30	5	mm	100.00	1751	      7000
Frame#	Time	Left_Front			Right_Front			Left_Aft			Right_Aft			Post			
		X1	Y1	Z1	X2	Y2	Z2	X3	Y3	Z3	X4	Y4	Z4	X5	Y5	Z5	

1751	17.500	-801.02460	6.65322	-651.96613	770.07983	5.02300	-629.02380	-731.22833	14.07520	484.56833	682.66870	10.86909	587.73627	-5.19415	1302.70532	-971.24310	
1752	17.510	-800.86346	6.77023	-651.99536	769.98596	4.90508	-629.08728	-731.32916	14.10286	484.54623	682.35016	11.01416	587.70905	-5.44336	1302.35303	-971.60992	
1753	17.520	-800.90527	6.74983	-652.02771	769.87512	4.62583	-629.11035	-731.36859	14.07718	484.58041	682.26996	11.06224	587.69183	-5.56492	1302.04321	-971.89948	
1754	17.530	-800.95959	6.68427	-652.09271	769.80560	4.55586	-629.10669	-731.49359	14.19262	484.46954	682.24261	11.08271	587.68024	-5.59934	1301.98621	-972.16821	
1755	17.540	-801.05609	6.51546	-652.12982	769.71667	4.41552	-629.10040	-731.59998	14.25045	484.51239	682.42120	11.45138	587.63574	-5.81559	1301.86658	-972.49127	
1756	17.550	-801.11652	6.38885	-652.19287	769.62701	4.33679	-629.13342	-731.69800	14.27566	484.48557	682.56586	11.70939	587.61084	-6.04822	1301.67761	-972.75049	
1757	17.560	-801.36761	6.29708	-652.31677	769.48413	4.20944	-629.20691	-731.79968	14.33792	484.50433	682.39532	11.71079	587.43164	-6.00428	1301.57666	-972.97815	
1758	17.570	-801.50824	6.26716	-652.34003	769.28601	4.07276	-629.19049	-731.90833	14.44275	484.43451	682.26672	11.76752	587.44476	-5.90768	1301.52271	-973.19580	
1759	17.580	-801.65808	6.23310	-652.26508	769.12036	4.08366	-629.20178	-732.01025	14.47892	484.43973	682.11218	11.76808	587.40088	-5.97834	1301.49512	-973.40350	
1760	17.590	-801.71161	6.15394	-652.29456	769.00055	4.09529	-629.18958	-732.08362	14.53045	484.42654	682.06390	11.78865	587.49329	-6.12153	1301.50586	-973.45117	
1761	17.600	-801.77728	6.13149	-652.24628	768.94232	4.09516	-629.17767	-732.16602	14.63192	484.52982	681.92792	11.79007	587.48859	-6.29566	1301.53748	-973.56384	
1762	17.610	-801.79791	6.14801	-652.21930	768.80396	4.03154	-629.20343	-732.32159	14.71746	484.38260	681.78802	11.76128	587.41217	-6.47993	1301.54077	-973.56219	
1763	17.620	-801.77179	6.03501	-652.09155	768.64557	4.01310	-629.14990	-732.54150	14.72517	484.32150	681.64417	11.79126	587.35480	-6.60800	1301.46375	-973.37219	
1764	17.630	-801.87561	5.93066	-652.15479	768.50293	4.03015	-629.15210	-732.59839	14.70497	484.38483	681.54468	11.89967	587.35919	-6.72284	1301.32104	-973.05963	
1765	17.640	-801.88617	5.92651	-652.13483	768.41864	3.99266	-629.19244	-732.58649	14.79579	484.36334	681.49451	11.99419	587.35486	-6.63349	1301.27771	-972.91772	
1766	17.650	-802.00696	5.88468	-652.06360	768.39349	3.95551	-629.23761	-732.70306	14.83193	484.29825	681.14136	12.08583	587.46454	-6.75524	1301.26904	-972.85486	
1767	17.660	-802.21613	5.63469	-652.07593	768.29523	3.85953	-629.27960	-732.85339	14.81874	484.22726	680.93262	12.09862	587.40222	-6.84768	1301.12720	-972.78284	
1768	17.670	-802.35968	5.54103	-652.07159	768.14917	3.79882	-629.28430	-733.09991	14.78825	484.22934	680.79877	12.15001	587.37775	-7.19708	1300.91699	-972.91034	
1769	17.680	-802.47211	5.49623	-652.07458	768.02313	3.76830	-629.26910	-733.24396	14.78509	484.27701	680.68799	12.20770	587.36768	-7.42579	1300.80835	-973.17181	
1770	17.690	-802.50208	5.45599	-652.08380	767.91333	3.73728	-629.31317	-733.36951	14.81808	484.33017	680.65161	12.23984	587.39673	-7.52576	1300.79565	-973.45929	
1771	17.700	-802.65100	5.50098	-652.04150	767.81152	3.75004	-629.35028	-733.44830	14.92459	484.23956	680.69489	12.35518	587.25079	-7.70901	1300.84070	-973.84375	
1772	17.710	-802.78662	5.46731	-652.06641	767.70844	3.73351	-629.38513	-733.57953	14.96972	484.23953	680.59320	12.31601	587.24609	-7.82573	1300.85083	-974.30573	
1773	17.720	-802.96637	5.49079	-652.04022	767.56812	3.68298	-629.38153	-733.64398	14.82235	484.25031	680.45343	12.31195	587.22009	-7.97539	1300.87463	-974.55273	
1774	17.730	-803.04846	5.50905	-651.99133	767.47369	3.72644	-629.34741	-733.76984	14.64002	484.43646	680.36188	12.27217	587.19843	-7.95832	1300.84326	-974.73126	
1775	17.740	-803.22040	5.53781	-651.94830	767.37982	3.72365	-629.36670	-733.92267	14.53312	484.45422	680.28882	12.25477	587.24371	-7.95203	1300.79907	-974.84967	
1776	17.750	-803.27148	5.52071	-651.98151	767.35120	3.74173	-629.35516	-734.01611	14.55168	484.45914	680.23657	12.21966	587.23730	-8.05713	1300.85693	-974.74280	
1777	17.760	-803.34216	5.56024	-651.98578	767.25494	3.76700	-629.35333	-734.14606	14.57310	484.45425	680.06213	12.02417	587.41791	-8.12624	1300.88086	-974.59857	
1778	17.770	-803.45941	5.65346	-652.06073	767.21997	3.71548	-629.34222	-734.22821	14.63347	484.43146	679.43457	11.65485	587.50067	-8.16213	1300.93079	-974.45966	
1779	17.780	-803.48041	5.64179	-652.03882	767.18860	3.76368	-629.34253	-734.33765	14.66063	484.39966	680.86090	12.64780	587.38568	-8.31801	1301.02234	-974.05078	
1780	17.790	-803.54584	5.68515	-652.00818	767.10352	3.79203	-629.35797	-734.45721	14.63428	484.43152	680.67255	12.55780	587.33032	-8.36742	1300.93201	-973.60291	
